<?xml version="1.0" encoding="utf-8"?>
<!-- Generator: Adobe Illustrator 24.2.0, SVG Export Plug-In . SVG Version: 6.00 Build 0)  -->
<svg version="1.1" xmlns="http://www.w3.org/2000/svg" xmlns:xlink="http://www.w3.org/1999/xlink" x="0px" y="0px"
	 viewBox="0 0 1600 900" enable-background="new 0 0 1600 900" xml:space="preserve">
<g id="Camada_1">
	<g>
		<rect x="-8.5" y="-8.5" fill="#383431" width="1617" height="919"/>
		<path d="M1608-8v918H-8V-8H1608 M1609-9H-9v920h1618V-9L1609-9z"/>
	</g>
</g>
<g id="Camada_2">
	<g>
		<rect x="40" y="345.79" fill="none" width="1520" height="208.43"/>
		<path fill="#FFFFFF" d="M188.17,290.45c25.59,0,47.84,14.34,46.5,41.14c7.64-13.27,19.56-8.58,11.39,2.68
			c-9.65,13.13-29.08,31.62-52.66,56.82c6.16-11.26,37.92-46.9,36.72-57.76c-2.41-21.57-22.38-32.29-42.61-32.29
			c-70.89,0-141.64,84.69-141.64,138.96c0,73.7,94.74,80.67,142.04,34.84C162.57,522.01,35,535.28,34.47,440
			C34.2,380.5,108.44,290.45,188.17,290.45z"/>
		<path fill="#FFFFFF" d="M327.93,437.99c-6.57,7.64-42.75,28.01-54.94,28.01c-17.42,0.13-20.23-17.29-11.66-32.83
			c-0.13-0.13-7.1,5.9-15.41,13.27c-20.5,18.22-24.66,21.71-28.54,23.58c-4.15,2.14-8.58,2.41-10.99,0.94
			c-4.82-2.95-4.42-10.18,0.94-19.03c10.59-17.69,34.84-40.74,57.22-40.74c4.42,0,8.44,0.4,10.32,2.55
			c1.47,1.88,0.94,2.28,3.35,3.89c2.28,1.47,3.22,3.62,2.41,5.63c-0.13,0.67-2.01,2.81-4.15,4.82c-8.71,8.84-12.33,20.64-8.98,26
			c1.34,2.28,3.62,2.81,9.38,2.41C293.35,455.28,312.78,444.83,327.93,437.99z M268.03,421.51c0-2.81-6.43-2.41-14.2,0.8
			c-13.27,5.49-29.75,20.1-38.32,34.57c-3.22,5.36-2.95,5.49,3.75,1.88c6.3-3.35,12.73-7.91,29.35-20.9
			C266.96,423.39,268.03,422.85,268.03,421.51z"/>
		<path fill="#FFFFFF" d="M336.9,424.99c5.23-6.83,9.38-11.93,10.72-12.6c3.62-1.74,7.91,0.54,7.91,4.29c0,1.61-2.01,4.82-4.56,8.04
			c-12.46,15.95-14.2,20.1-17.42,26c12.19-7.5,54.54-52.66,71.42-39.53c3.75,2.81,3.48,5.76,0.94,9.92
			c-1.61-6.03-7.77-5.9-15.68-3.62c-30.02,8.44-51.73,43.82-67.4,53.33c-3.89,2.41-9.78,0-9.78-5.23
			C313.18,460.64,322.16,444.02,336.9,424.99z"/>
		<path fill="#FFFFFF" d="M427.22,462.25c17.15,1.34,43.01-14.34,58.83-24.25c-8.71,9.92-37.25,33.9-58.83,33.9
			c-13.94,0-19.3-9.78-19.43-19.97c-0.27-28.14,47.17-80.67,61.64-95.95c4.56-4.96,8.84-8.98,9.92-10.05
			c2.81-2.95,7.64-2.55,8.84,1.88c0.67,2.81-0.13,5.36-8.84,13C469.96,369.11,392.11,459.43,427.22,462.25z"/>
		<path fill="#FFFFFF" d="M518.07,452.33c-6.83,6.57-17.55,15.81-26.93,18.63c-3.35,0.94-6.16,0.94-8.98-0.13
			c-2.68-0.94-5.49-3.89-6.3-6.57c-2.95-10.59,8.04-28.27,25.86-43.15c17.82-15.14,26.93-9.78,27.6-4.69
			c5.76,9.11,0,22.24-6.3,30.69c8.44,6.16,36.85-2.14,48.37-9.11C565.1,445.63,538.84,460.91,518.07,452.33z M511.1,448.85
			c-4.15-3.08-6.97-9.38-7.1-16.35c-0.94,0-8.98,9.38-12.06,14.07c-3.75,5.63-6.43,9.92-6.43,13c0,2.01,0,2.01,2.01,2.01
			c3.62,0,9.65-2.95,12.6-4.82C503.86,454.47,511.1,449.38,511.1,448.85z M525.3,418.56c-0.8-0.67-2.14-0.67-5.63,1.74
			c-7.91,5.49-8.71,16.21-3.89,22.24c0.94,1.07,1.21,0.8,3.89-2.81C522.76,435.71,529.73,422.72,525.3,418.56z"/>
		<path fill="#FFFFFF" d="M644.03,437.99c-23.18,3.75-45.02,11.26-56.95,16.62c6.57,33.63-50.38,50.12-50.38,28.95
			c0-10.59,25.46-24.25,38.99-30.82c0-2.68-4.02-8.98-4.02-18.89c0-17.29,26.93-28.41,40.07-23.18c2.28-3.62,3.08-6.97,6.3-6.97
			c1.88,0,4.96,1.21,3.89,2.95c-4.56,7.64-10.99,18.76-21.17,28.14c0,0,5.49-13.27,7.91-18.22c-2.95-2.14-31.22,2.28-26.4,23.18
			c0.67,2.95,2.28,8.31,3.08,8.98C593.24,445.5,619.5,438.66,644.03,437.99z M577.03,459.3c-0.8,0-10.99,5.36-17.02,8.98
			c-8.17,4.96-15.14,10.59-16.75,13.94c-1.88,3.62,5.36,2.14,6.83,1.88c10.72-1.74,21.84-8.31,25.59-15.28
			C577.29,465.86,578.23,459.3,577.03,459.3z"/>
		<path fill="#FFFFFF" d="M897.15,328.24c-15.14,27.47-51.19,73.3-68.47,99.3c37.65,21.57,149.14-20.37,149.01-78.93
			c-0.27-40.2-48.78-59.63-101.84-58.69c-140.3,2.55-171.93,116.05-87.5,114.71c-85.76,14.34-78.12-121.81,87.1-122.88
			c57.75-0.4,113.5,20.5,112.29,66.87c-1.88,66.6-119.4,111.36-163.21,85.09c-12.86,17.02-27.34,38.99-42.08,60.57
			c-4.96,7.24-14.74,2.68-10.85-3.22C791.56,460.37,880.94,340.71,897.15,328.24z"/>
		<path fill="#FFFFFF" d="M1086.36,437.99c-6.57,7.64-42.75,28.01-54.94,28.01c-17.42,0.13-20.23-17.29-11.66-32.83
			c-0.13-0.13-7.1,5.9-15.41,13.27c-20.5,18.22-24.66,21.71-28.54,23.58c-4.15,2.14-8.58,2.41-10.99,0.94
			c-4.82-2.95-4.42-10.18,0.94-19.03c10.59-17.69,34.84-40.74,57.22-40.74c4.42,0,8.44,0.4,10.32,2.55
			c1.47,1.88,0.94,2.28,3.35,3.89c2.28,1.47,3.22,3.62,2.41,5.63c-0.13,0.67-2.01,2.81-4.15,4.82c-8.71,8.84-12.33,20.64-8.98,26
			c1.34,2.28,3.62,2.81,9.38,2.41C1051.79,455.28,1071.22,444.83,1086.36,437.99z M1026.46,421.51c0-2.81-6.43-2.41-14.21,0.8
			c-13.27,5.49-29.75,20.1-38.32,34.57c-3.22,5.36-2.95,5.49,3.75,1.88c6.3-3.35,12.73-7.91,29.35-20.9
			C1025.39,423.39,1026.46,422.85,1026.46,421.51z"/>
		<path fill="#FFFFFF" d="M1194.9,437.99c-15.14,3.48-28.68,6.57-50.52,9.92c-0.13,0-1.74,1.21-4.69,3.75
			c-9.25,7.64-19.03,13.67-28.01,17.02c-7.77,2.95-19.03,4.02-23.99,2.28v0.13c-2.81-0.94-6.16-3.62-7.37-5.76
			c-0.94-1.88-2.28-1.47-3.75,0.13l-32.96,46.63c-7.91,12.06-15.95,8.04-11.12,0l69.41-95.68c3.48-5.23,4.56-5.76,6.83-5.76
			c3.22,0,5.23,3.75,3.35,6.7c-3.08,4.82-12.33,14.74-19.7,25.46c0.13,0,3.35-2.28,7.37-5.23c8.71-6.57,24.79-17.42,31.49-21.04
			c5.9-3.48,11.66-5.76,15.54-6.57c8.31-1.47,14.47,5.09,12.86,13.8c-0.67,3.62-3.89,10.18-7.1,14.47
			c-1.34,1.88-2.41,3.48-2.28,3.62C1150.27,441.88,1179.75,438.93,1194.9,437.99z M1122.4,451.66c-6.16,1.47-18.36,4.02-31.22,6.7
			c-9.78,2.01-8.98,4.82,2.68,3.89c6.7-0.54,12.19-1.74,17.02-4.02C1116.1,455.95,1123.34,451.79,1122.4,451.66z M1146.66,429.28
			c4.15-6.7,4.96-11.26,2.14-12.46c-3.48-1.74-13.27,2.55-28.27,12.46c-11.66,7.77-32.16,23.85-30.28,23.85l41.54-8.58
			C1133.93,443.75,1143.98,433.57,1146.66,429.28z"/>
		<path fill="#FFFFFF" d="M1305.98,437.99c-6.57,7.64-42.75,28.01-54.94,28.01c-17.42,0.13-20.23-17.29-11.66-32.83
			c-0.13-0.13-7.1,5.9-15.41,13.27c-20.5,18.22-24.66,21.71-28.54,23.58c-4.15,2.14-8.58,2.41-10.99,0.94
			c-4.82-2.95-4.42-10.18,0.94-19.03c10.59-17.69,34.84-40.74,57.22-40.74c4.42,0,8.44,0.4,10.32,2.55
			c1.47,1.88,0.94,2.28,3.35,3.89c2.28,1.47,3.22,3.62,2.41,5.63c-0.13,0.67-2.01,2.81-4.15,4.82c-8.71,8.84-12.33,20.64-8.98,26
			c1.34,2.28,3.62,2.81,9.38,2.41C1271.41,455.28,1290.84,444.83,1305.98,437.99z M1246.08,421.51c0-2.81-6.43-2.41-14.21,0.8
			c-13.27,5.49-29.75,20.1-38.32,34.57c-3.22,5.36-2.95,5.49,3.75,1.88c6.3-3.35,12.73-7.91,29.35-20.9
			C1245.01,423.39,1246.08,422.85,1246.08,421.51z"/>
		<path fill="#FFFFFF" d="M1322.33,462.25c17.15,1.34,43.01-14.34,58.83-24.25c-8.71,9.92-37.25,33.9-58.83,33.9
			c-13.94,0-19.3-9.78-19.43-19.97c-0.27-28.14,47.17-80.67,61.64-95.95c4.56-4.96,8.84-8.98,9.92-10.05
			c2.81-2.95,7.64-2.55,8.84,1.88c0.67,2.81-0.13,5.36-8.84,13C1365.07,369.11,1287.22,459.43,1322.33,462.25z"/>
		<path fill="#FFFFFF" d="M1390.93,470.02c-3.75-0.67-6.7-2.01-9.38-4.56c-8.04-7.37-6.7-20.5,3.35-34.04
			c9.65-12.6,24.52-19.83,33.37-19.03c3.22,0.4,6.03,1.74,6.83,4.29c6.57,20.23-32.29,28.54-37.12,27.74
			c-1.07,0.8-2.81,7.24-2.55,9.51c0.54,4.15,5.49,7.37,13.13,7.77c19.56,1.47,57.49-15.81,74.64-23.72
			C1467.45,444.02,1420.01,474.84,1390.93,470.02z M1390.8,439.6c0.13,0,2.01-0.54,3.89-1.21c4.69-1.74,23.18-10.32,23.18-15.14
			c0-0.94-0.27-0.94-2.14-0.67C1407.01,423.92,1395.36,432.36,1390.8,439.6z"/>
		<path fill="#FFFFFF" d="M1505.77,452.33c-6.83,6.57-17.55,15.81-26.93,18.63c-3.35,0.94-6.16,0.94-8.98-0.13
			c-2.68-0.94-5.49-3.89-6.3-6.57c-2.95-10.59,8.04-28.27,25.86-43.15c17.82-15.14,26.93-9.78,27.61-4.69
			c5.76,9.11,0,22.24-6.3,30.69c8.44,6.16,36.85-2.14,48.38-9.11C1552.81,445.63,1526.54,460.91,1505.77,452.33z M1498.8,448.85
			c-4.15-3.08-6.97-9.38-7.1-16.35c-0.94,0-8.98,9.38-12.06,14.07c-3.75,5.63-6.43,9.92-6.43,13c0,2.01,0,2.01,2.01,2.01
			c3.62,0,9.65-2.95,12.6-4.82C1491.57,454.47,1498.8,449.38,1498.8,448.85z M1513.01,418.56c-0.8-0.67-2.14-0.67-5.63,1.74
			c-7.91,5.49-8.71,16.21-3.89,22.24c0.94,1.07,1.21,0.8,3.89-2.81C1510.46,435.71,1517.43,422.72,1513.01,418.56z"/>
	</g>
</g>
<g id="Camada_3">
	<g>
		<rect x="517.71" y="532.07" fill="none" width="564.57" height="65.86"/>
		<path fill="#FFFFFF" d="M610.87,534.29l-14.1,60.19c-0.22,0.93-0.79,1.39-1.72,1.39c-0.93,0-1.51-0.46-1.72-1.39l-12.21-52.23
			c-0.07-0.05-0.17-0.08-0.3-0.08c-0.07,0-0.13,0.02-0.2,0.06l-12.21,52.24c-0.21,0.94-0.77,1.41-1.68,1.41
			c-0.91,0-1.47-0.46-1.68-1.39l-14.1-60.19c-0.27-1.19,0.12-1.93,1.2-2.21c1.11-0.22,1.81,0.25,2.07,1.42l12.32,52.23
			c0,0.1,0.07,0.15,0.2,0.15s0.2-0.05,0.2-0.16l12.3-52.23c0.22-0.93,0.76-1.39,1.64-1.39c0.93,0,1.5,0.44,1.72,1.31l12.3,52.31
			c0,0.11,0.05,0.16,0.16,0.16c0.11,0,0.16-0.06,0.16-0.17l12.32-52.23c0.27-1.15,0.98-1.62,2.12-1.4
			C610.74,532.36,611.14,533.09,610.87,534.29z"/>
		<path fill="#FFFFFF" d="M649.98,572.74c0,1.15-0.57,1.72-1.72,1.72H625.3c-0.27,0-0.41,0.14-0.41,0.41v7.05
			c0,2.95,1.04,5.47,3.12,7.54c2.08,2.08,4.59,3.12,7.54,3.12h0.33c4.21,0,7.32-1.86,9.35-5.58c0.55-1.04,1.34-1.26,2.38-0.66
			c0.98,0.55,1.2,1.31,0.66,2.3c-2.68,4.92-6.81,7.38-12.38,7.38h-0.33c-3.88,0-7.2-1.38-9.96-4.14c-2.76-2.76-4.14-6.08-4.14-9.96
			V563.4c0-3.88,1.38-7.2,4.14-9.96c2.76-2.76,6.08-4.14,9.96-4.14h0.33c3.88,0,7.2,1.38,9.96,4.14c2.76,2.76,4.14,6.08,4.14,9.96
			V572.74z M646.54,570.61v-7.2c0-2.98-1.04-5.5-3.12-7.57c-2.08-2.07-4.59-3.1-7.54-3.1h-0.33c-2.95,0-5.47,1.04-7.54,3.1
			c-2.08,2.07-3.12,4.59-3.12,7.57v7.2c0,0.28,0.14,0.41,0.41,0.41h20.75C646.38,571.02,646.54,570.88,646.54,570.61z"/>
		<path fill="#FFFFFF" d="M689.02,581.74c0,3.89-1.38,7.22-4.14,9.98c-2.76,2.76-6.08,4.15-9.96,4.15h-0.33
			c-3.88,0-7.2-1.38-9.96-4.15c-2.76-2.77-4.14-6.1-4.14-9.99V533.8c0-1.15,0.57-1.73,1.72-1.73c1.15,0,1.72,0.58,1.72,1.73v20.08
			c0,0.33,0.11,0.38,0.33,0.16c2.84-3.01,6.29-4.51,10.33-4.51h0.33c3.88,0,7.2,1.38,9.96,4.15c2.76,2.77,4.14,6.09,4.14,9.98
			V581.74z M685.57,581.72V563.6c0-2.91-1.04-5.41-3.12-7.49c-2.08-2.09-4.59-3.13-7.54-3.13h-0.33c-2.95,0-5.47,1.04-7.54,3.13
			c-2.08,2.09-3.12,4.58-3.12,7.49v18.12c0,2.96,1.04,5.49,3.12,7.58c2.08,2.09,4.59,3.13,7.54,3.13h0.33
			c2.95,0,5.47-1.04,7.54-3.13C684.53,587.21,685.57,584.68,685.57,581.72z"/>
		<path fill="#FFFFFF" d="M757.16,581.75c0,3.89-1.38,7.21-4.14,9.98c-2.76,2.77-6.08,4.15-9.96,4.15h-17.22
			c-1.15,0-1.72-0.57-1.72-1.72V533.8c0-1.15,0.57-1.72,1.72-1.72h17.22c3.88,0,7.2,1.38,9.96,4.15c2.76,2.77,4.14,6.09,4.14,9.98
			V581.75z M753.71,581.81v-35.61c0-2.96-1.05-5.48-3.14-7.57c-2.09-2.08-4.59-3.12-7.51-3.12h-15.1c-0.28,0-0.41,0.17-0.41,0.49v56
			c0,0.27,0.14,0.41,0.41,0.41h15.1c2.91,0,5.42-1.04,7.51-3.13C752.67,587.21,753.71,584.72,753.71,581.81z"/>
		<path fill="#FFFFFF" d="M796.19,572.74c0,1.15-0.57,1.72-1.72,1.72H771.5c-0.27,0-0.41,0.14-0.41,0.41v7.05
			c0,2.95,1.04,5.47,3.12,7.54c2.08,2.08,4.59,3.12,7.54,3.12h0.33c4.21,0,7.32-1.86,9.35-5.58c0.55-1.04,1.34-1.26,2.38-0.66
			c0.98,0.55,1.2,1.31,0.66,2.3c-2.68,4.92-6.81,7.38-12.38,7.38h-0.33c-3.88,0-7.2-1.38-9.96-4.14c-2.76-2.76-4.14-6.08-4.14-9.96
			V563.4c0-3.88,1.38-7.2,4.14-9.96c2.76-2.76,6.08-4.14,9.96-4.14h0.33c3.88,0,7.2,1.38,9.96,4.14c2.76,2.76,4.14,6.08,4.14,9.96
			V572.74z M792.74,570.61v-7.2c0-2.98-1.04-5.5-3.12-7.57c-2.08-2.07-4.59-3.1-7.54-3.1h-0.33c-2.95,0-5.47,1.04-7.54,3.1
			c-2.08,2.07-3.12,4.59-3.12,7.57v7.2c0,0.28,0.14,0.41,0.41,0.41h20.75C792.58,571.02,792.74,570.88,792.74,570.61z"/>
		<path fill="#FFFFFF" d="M837.76,551.83l-13.86,42.8c-0.27,0.82-0.82,1.23-1.64,1.23c-0.82,0-1.37-0.38-1.64-1.15l-13.86-42.88
			c-0.38-1.13-0.04-1.9,1.04-2.3c1.12-0.38,1.84,0.04,2.16,1.26l12.08,37.05c0.12,0.37,0.24,0.36,0.36-0.03l12.08-37.05
			c0.33-1.2,1.07-1.61,2.21-1.23C837.79,549.93,838.14,550.7,837.76,551.83z"/>
		<path fill="#FFFFFF" d="M876.88,572.74c0,1.15-0.57,1.72-1.72,1.72h-22.96c-0.27,0-0.41,0.14-0.41,0.41v7.05
			c0,2.95,1.04,5.47,3.12,7.54c2.08,2.08,4.59,3.12,7.54,3.12h0.33c4.21,0,7.33-1.86,9.35-5.58c0.55-1.04,1.34-1.26,2.38-0.66
			c0.98,0.55,1.2,1.31,0.66,2.3c-2.68,4.92-6.81,7.38-12.38,7.38h-0.33c-3.88,0-7.2-1.38-9.96-4.14c-2.76-2.76-4.14-6.08-4.14-9.96
			V563.4c0-3.88,1.38-7.2,4.14-9.96c2.76-2.76,6.08-4.14,9.96-4.14h0.33c3.88,0,7.2,1.38,9.96,4.14c2.76,2.76,4.14,6.08,4.14,9.96
			V572.74z M873.43,570.61v-7.2c0-2.98-1.04-5.5-3.12-7.57c-2.08-2.07-4.59-3.1-7.54-3.1h-0.33c-2.95,0-5.47,1.04-7.54,3.1
			c-2.08,2.07-3.12,4.59-3.12,7.57v7.2c0,0.28,0.14,0.41,0.41,0.41h20.75C873.27,571.02,873.43,570.88,873.43,570.61z"/>
		<path fill="#FFFFFF" d="M897.54,595.05c-0.66,0.93-1.45,1.09-2.38,0.49c-5.08-3.34-7.63-8.02-7.63-14.04v-47.7
			c0-1.15,0.56-1.72,1.68-1.72c1.17,0,1.76,0.58,1.76,1.72v47.7c0,4.76,2.02,8.46,6.06,11.08
			C898.03,593.24,898.19,594.06,897.54,595.05z"/>
		<path fill="#FFFFFF" d="M936.73,581.93c0,3.88-1.38,7.2-4.14,9.96c-2.76,2.76-6.08,4.14-9.96,4.14h-0.33
			c-3.88,0-7.2-1.38-9.96-4.14c-2.76-2.76-4.14-6.08-4.14-9.96V563.4c0-3.88,1.38-7.2,4.14-9.96c2.76-2.76,6.08-4.14,9.96-4.14h0.33
			c3.88,0,7.2,1.38,9.96,4.14c2.76,2.76,4.14,6.08,4.14,9.96V581.93z M933.29,581.91v-18.57c0-2.96-1.04-5.46-3.12-7.52
			c-2.08-2.05-4.59-3.08-7.54-3.08h-0.33c-2.95,0-5.47,1.03-7.54,3.08c-2.08,2.06-3.12,4.56-3.12,7.52v18.57
			c0,2.96,1.04,5.48,3.12,7.56c2.08,2.08,4.59,3.12,7.54,3.12h0.33c2.95,0,5.47-1.04,7.54-3.12
			C932.25,587.38,933.29,584.86,933.29,581.91z"/>
		<path fill="#FFFFFF" d="M975.77,581.74c0,3.89-1.38,7.22-4.14,9.98c-2.76,2.76-6.08,4.15-9.96,4.15h-0.33
			c-4.05,0-7.49-1.53-10.33-4.59c-0.22-0.22-0.33-0.16-0.33,0.16v20.01c0,1.15-0.57,1.72-1.72,1.72c-1.15,0-1.72-0.57-1.72-1.72
			v-47.81c0-3.88,1.38-7.2,4.14-9.96c2.76-2.76,6.08-4.14,9.96-4.14h0.33c3.88,0,7.2,1.38,9.96,4.15c2.76,2.77,4.14,6.09,4.14,9.98
			V581.74z M972.32,581.72V563.6c0-2.91-1.04-5.41-3.12-7.49c-2.08-2.09-4.59-3.13-7.54-3.13h-0.33c-2.95,0-5.47,1.04-7.54,3.13
			c-2.08,2.09-3.12,4.58-3.12,7.49v18.12c0,2.96,1.04,5.49,3.12,7.58c2.08,2.09,4.59,3.13,7.54,3.13h0.33
			c2.95,0,5.47-1.04,7.54-3.13C971.28,587.21,972.32,584.68,972.32,581.72z"/>
		<path fill="#FFFFFF" d="M1014.8,572.74c0,1.15-0.57,1.72-1.72,1.72h-22.96c-0.27,0-0.41,0.14-0.41,0.41v7.05
			c0,2.95,1.04,5.47,3.12,7.54c2.08,2.08,4.59,3.12,7.54,3.12h0.33c4.21,0,7.33-1.86,9.35-5.58c0.55-1.04,1.34-1.26,2.38-0.66
			c0.98,0.55,1.2,1.31,0.66,2.3c-2.68,4.92-6.81,7.38-12.38,7.38h-0.33c-3.88,0-7.2-1.38-9.96-4.14c-2.76-2.76-4.14-6.08-4.14-9.96
			V563.4c0-3.88,1.38-7.2,4.14-9.96c2.76-2.76,6.08-4.14,9.96-4.14h0.33c3.88,0,7.2,1.38,9.96,4.14c2.76,2.76,4.14,6.08,4.14,9.96
			V572.74z M1011.35,570.61v-7.2c0-2.98-1.04-5.5-3.12-7.57c-2.08-2.07-4.59-3.1-7.54-3.1h-0.33c-2.95,0-5.47,1.04-7.54,3.1
			c-2.08,2.07-3.12,4.59-3.12,7.57v7.2c0,0.28,0.14,0.41,0.41,0.41h20.75C1011.19,571.02,1011.35,570.88,1011.35,570.61z"/>
		<path fill="#FFFFFF" d="M1049.16,553.27c-0.43,1.08-1.19,1.41-2.28,0.97l-1.48-0.49c-1.38-0.51-2.78-0.76-4.21-0.76
			c-2.58,0-4.98,0.74-7.18,2.22c-3.52,2.52-5.28,5.93-5.28,10.21v28.73c0,1.15-0.56,1.73-1.68,1.73c-1.17,0-1.76-0.57-1.76-1.72
			v-28.67c0-5.53,2.27-9.86,6.81-12.98c2.73-1.97,5.74-2.96,9.02-2.96c1.86,0,3.69,0.33,5.49,0.98l1.48,0.49
			C1049.18,551.44,1049.54,552.2,1049.16,553.27z"/>
	</g>
	<g>
	</g>
	<g>
	</g>
	<g>
	</g>
	<g>
	</g>
	<g>
	</g>
	<g>
	</g>
	<g>
	</g>
	<g>
	</g>
	<g>
	</g>
	<g>
	</g>
	<g>
	</g>
	<g>
	</g>
	<g>
	</g>
	<g>
	</g>
	<g>
	</g>
</g>
</svg>
