<?xml version="1.0" encoding="utf-8"?>
<!-- Generator: Adobe Illustrator 24.2.0, SVG Export Plug-In . SVG Version: 6.00 Build 0)  -->
<svg version="1.1" id="Camada_1" xmlns="http://www.w3.org/2000/svg" xmlns:xlink="http://www.w3.org/1999/xlink" x="0px" y="0px"
	 viewBox="0 0 16 16" style="enable-background:new 0 0 16 16;" xml:space="preserve">
<style type="text/css">
	.st0{fill-rule:evenodd;clip-rule:evenodd;fill:#FFFFFF;}
</style>
<path class="st0" d="M1,8c0,3.9,3.1,7,7,7s7-3.1,7-7s-3.1-7-7-7S1,4.1,1,8z M16,8c0,4.4-3.6,8-8,8s-8-3.6-8-8s3.6-8,8-8S16,3.6,16,8
	z M8.5,4.5C8.5,4.2,8.3,4,8,4C7.7,4,7.5,4.2,7.5,4.5v5.8L5.4,8.1C5.2,8,4.8,8,4.6,8.1s-0.2,0.5,0,0.7l3,3c0.2,0.2,0.5,0.2,0.7,0
	c0,0,0,0,0,0l3-3c0.2-0.2,0.2-0.5,0-0.7s-0.5-0.2-0.7,0l-2.1,2.1V4.5z"/>
</svg>
